<?xml version="1.0" encoding="utf-8"?>
<!-- Generator: Adobe Illustrator 17.0.0, SVG Export Plug-In . SVG Version: 6.00 Build 0)  -->
<!DOCTYPE svg PUBLIC "-//W3C//DTD SVG 1.1//EN" "http://www.w3.org/Graphics/SVG/1.1/DTD/svg11.dtd">
<svg version="1.1" id="Слой_1" xmlns="http://www.w3.org/2000/svg" xmlns:xlink="http://www.w3.org/1999/xlink" x="0px" y="0px"
	 width="39.202px" height="29.685px" viewBox="0 0 39.202 29.685" enable-background="new 0 0 39.202 29.685" xml:space="preserve">
<g>
	<path fill="#1F4B75" d="M34.99,7.614c-5.006,4.177-10.01,8.357-15.015,12.535c-0.097,0.081-0.199,0.155-0.324,0.251
		c-0.858-0.715-1.709-1.423-2.559-2.132C11.497,13.602,5.902,8.936,0.307,4.271C0.21,4.19,0.102,4.121,0,4.047
		c0,7.631,0,15.262,0,22.894c0.155,0.722,0.423,1.384,0.979,1.9c0.674,0.626,1.488,0.845,2.386,0.845
		c5.865-0.002,11.73-0.001,17.595-0.001c4.96,0,9.919-0.001,14.879,0.001c0.898,0,1.711-0.218,2.386-0.845
		c0.556-0.516,0.824-1.178,0.979-1.9c0-7.606,0-15.211,0-22.817C37.798,5.287,36.39,6.445,34.99,7.614z"/>
	<path fill="#1F4B75" d="M38.664,1.354C37.956,0.393,37.038,0,35.919,0C25.035,0.002,14.15,0.001,3.266,0.002
		c-0.14,0-0.281,0.004-0.42,0.018c-0.926,0.087-1.67,0.501-2.267,1.288C6.95,6.621,13.296,11.914,19.661,17.221
		C26.004,11.925,32.333,6.641,38.664,1.354z"/>
</g>
</svg>
