<?xml version="1.0" encoding="utf-8"?>
<!-- Generator: Adobe Illustrator 17.0.0, SVG Export Plug-In . SVG Version: 6.00 Build 0)  -->
<!DOCTYPE svg PUBLIC "-//W3C//DTD SVG 1.1//EN" "http://www.w3.org/Graphics/SVG/1.1/DTD/svg11.dtd">
<svg version="1.1" id="Слой_1" xmlns="http://www.w3.org/2000/svg" xmlns:xlink="http://www.w3.org/1999/xlink" x="0px" y="0px"
	 width="173.654px" height="106.131px" viewBox="0 0 173.654 106.131" enable-background="new 0 0 173.654 106.131"
	 xml:space="preserve">
<g>
	<path fill="#FFFFFF" stroke="#FFFFFF" stroke-width="0.2" stroke-miterlimit="10" d="M71.139,41.089
		c-0.001-0.646-0.258-1.265-0.714-1.723c-0.494-0.538-1.197-0.835-1.927-0.816c-5.169,0.102-12.775,7.096-22.807,21.186
		c-4.761,6.994-7.935,11.755-9.42,14.192h-1.723c-1.519,0.102-2.267,0.408-2.267,1.009c0,0.816,0.51,1.213,1.417,1.213h0.612
		c-0.102,0.816-1.417,2.936-4.058,6.382c-2.811,3.658-5.839,7.145-9.068,10.44c-2.438,2.513-5.198,4.693-8.207,6.484
		c-3.038,1.825-5.169,2.63-6.801,2.63c-1.045-0.112-2.032-0.535-2.834-1.213c-1.213-1.134-1.723-1.621-1.723-1.621
		c-1.009,0-1.519,0.51-1.519,1.315c0.013,0.797,0.443,1.529,1.134,1.927c0.785,0.597,1.746,0.916,2.732,0.907
		c3.401,0,7.096-1.519,11.449-4.455c2.6-1.736,5.012-3.738,7.198-5.974c2.636-2.574,5.141-5.279,7.504-8.105
		c0.816-0.907,3.14-3.752,6.892-8.717l11.143-0.51c0.714-0.102,1.134-0.306,1.134-0.612c0.074-0.552-0.314-1.06-0.866-1.134
		c-0.089-0.012-0.178-0.012-0.267,0h-9.522l2.267-3.956c4.167-2.165,8.105-4.743,11.755-7.697
		c4.516-3.518,8.691-7.453,12.469-11.755c3.956-4.534,5.974-7.697,5.974-9.42L71.139,41.089z M68.872,41.089
		c0,2.539-2.335,6.28-6.892,11.143c-3.632,4.11-7.791,7.723-12.367,10.746c-3.65,2.267-6.28,3.956-8.207,5.169
		c4.663-6.688,8.211-11.755,10.644-15.201c2.434-3.282,5.183-6.32,8.207-9.068c3.185-2.686,5.452-4.115,6.586-4.115
		c1.417,0,2.029,0.408,2.029,1.315V41.089z M76.568,68.861c0-0.306-0.102-0.306-0.306-0.306s-0.306-0.102-0.306,0
		c-1.954,1.987-4.091,3.786-6.382,5.373c-2.936,2.131-5.067,3.14-6.382,3.14c-0.704,0.036-1.383-0.267-1.825-0.816
		c2.335-1.927,3.401-3.956,3.401-5.974c0-1.825-1.009-2.732-2.936-2.732c-1.927,0-4.534,1.134-7.402,3.548
		c-2.936,2.63-4.455,4.863-4.455,6.994c0,1.519,1.009,2.335,3.038,2.335c1.597-0.053,3.156-0.505,4.534-1.315
		c0.997-0.459,1.892-1.115,2.63-1.927c0.767,0.723,1.78,1.128,2.834,1.134c1.519-0.102,3.854-1.134,6.892-3.401
		c2.339-1.522,4.453-3.365,6.28-5.475c0.217-0.123,0.338-0.365,0.306-0.612L76.568,68.861z M63.998,69.869
		c0,1.723-1.213,3.548-3.548,5.373c-0.51-0.408-0.714-1.417-0.714-2.834c0.009-0.893,0.33-1.755,0.907-2.437
		c0.553-0.729,1.42-1.15,2.335-1.134c0.714,0,1.009,0.306,1.009,1.009L63.998,69.869z M59.543,76.149
		c-1.438,1.349-3.303,2.151-5.271,2.267c-1.134,0-1.621-0.714-1.621-2.131c0-2.335,2.267-4.455,6.801-6.586
		c-0.78,1.009-1.142,2.28-1.009,3.548c-0.032,1.091,0.376,2.15,1.134,2.936L59.543,76.149z M97.652,68.645
		c0-0.204,0-0.204-0.204-0.204H97.04c-4.353,3.401-6.994,5.271-8.003,5.883c-4.262,2.732-7.402,4.058-9.624,4.058
		c-0.59-0.032-1.157-0.246-1.621-0.612c-0.373-0.421-0.589-0.957-0.612-1.519c0.102-0.907,0.816-2.029,2.437-3.548
		c1.621-1.519,2.539-2.63,2.539-3.65c0-0.816-0.612-1.213-1.723-1.213c-0.612,0.102-1.621,0.306-3.242,0.612
		c1.315-1.213,1.927-2.267,1.927-3.14c-0.023-0.532-0.472-0.944-1.004-0.921c-0.043,0.002-0.087,0.007-0.13,0.014
		c-1.237,0.438-2.349,1.169-3.242,2.131c-1.315,1.519-1.927,2.539-1.927,3.242c0.067,0.35,0.246,0.668,0.51,0.907
		c-4.455,3.401-7.697,5.475-9.93,6.28c-0.304,0.302-0.486,0.706-0.51,1.134c0,0.204,0.306,0.204,1.009,0.204
		c3.83-1.9,7.378-4.323,10.542-7.198h0.204c0.712,0.01,1.424-0.024,2.131-0.102c0.834-0.185,1.685-0.287,2.539-0.306
		c-0.907,1.134-1.927,2.131-2.936,3.242c-0.824,0.793-1.389,1.816-1.621,2.936c0.054,0.898,0.462,1.737,1.134,2.335
		c0.605,0.605,1.413,0.965,2.267,1.009c3.14,0,6.688-1.417,10.848-4.16c1.621-1.134,4.534-3.401,8.513-6.688
		c0.161-0.201,0.234-0.458,0.204-0.714L97.652,68.645z M124.098,70.062c-0.102-0.306-0.306-0.306-0.612-0.306
		c-0.506,0-2.331,1.319-5.475,3.956c-3.401,2.732-5.668,3.956-7.198,3.956c-2.029,0-3.038-0.612-3.038-1.927
		c0.233-1.693,0.977-3.274,2.131-4.534c1.315-1.519,1.927-2.335,1.927-2.267c0-0.408-0.306-0.612-1.009-0.51
		c-1.212,0.791-2.247,1.826-3.038,3.038c-1.086,1.592-1.717,3.449-1.825,5.373c-0.211,1.298,0.67,2.521,1.967,2.732
		c0.253,0.041,0.511,0.041,0.765,0c1.825,0,4.262-1.009,7.606-3.14l-19.27,21.186c-2.131,2.437-3.14,4.455-3.14,6.28
		c0.032,0.713,0.1,1.425,0.204,2.131c1.271,0.038,2.401-0.801,2.732-2.029v-0.907c-0.085-0.298-0.153-0.601-0.204-0.907
		c0.449-1.605,1.246-3.091,2.335-4.353c3.752-4.659,7.697-9.42,12.163-14.09c1.621-1.621,4.659-4.761,9.227-9.329
		C122.783,71.876,124.098,70.459,124.098,70.062L124.098,70.062z M150.747,68.849c0-0.306-0.102-0.306-0.306-0.306
		s-0.306-0.102-0.306,0c-1.954,1.987-4.091,3.786-6.382,5.373c-2.936,2.131-5.067,3.14-6.382,3.14
		c-0.704,0.036-1.383-0.267-1.825-0.816c2.335-1.927,3.401-3.956,3.401-5.974c0-1.825-0.907-2.732-2.936-2.732
		c-2.029,0-4.534,1.134-7.402,3.548c-2.936,2.63-4.455,4.863-4.455,6.994c0,1.519,1.009,2.335,3.038,2.335
		c1.597-0.053,3.156-0.505,4.534-1.315c0.997-0.459,1.892-1.115,2.63-1.927c0.767,0.723,1.78,1.128,2.834,1.134
		c1.519-0.102,3.854-1.134,6.892-3.401c2.339-1.522,4.453-3.365,6.28-5.475c0.217-0.123,0.338-0.365,0.306-0.612L150.747,68.849z
		 M138.176,69.858c0,1.723-1.213,3.548-3.548,5.373c-0.51-0.408-0.714-1.417-0.714-2.834c0.009-0.893,0.33-1.755,0.907-2.437
		c0.553-0.729,1.42-1.15,2.335-1.134c0.714,0,1.009,0.306,1.009,1.009L138.176,69.858z M133.721,76.149
		c-1.438,1.349-3.303,2.151-5.271,2.267c-1.134,0-1.621-0.714-1.621-2.131c0-2.335,2.267-4.455,6.801-6.586
		c-0.78,1.009-1.142,2.28-1.009,3.548c-0.032,1.091,0.376,2.15,1.134,2.936L133.721,76.149z M173.554,68.849
		c0-0.306-0.102-0.408-0.306-0.408c-0.204,0-0.102,0-0.306,0.102c-4.058,3.038-6.586,4.863-7.606,5.577
		c-3.65,2.539-6.382,3.752-8.003,3.752c-0.637-0.16-1.184-0.568-1.519-1.134c-0.556-0.648-0.847-1.482-0.816-2.335
		c0-0.907,0.816-2.029,2.131-3.401c1.519-1.417,2.131-2.267,2.131-2.63s-0.306-0.612-0.714-0.612c-0.612,0-1.621,0.816-3.038,2.63
		c-1.072,1.596-2.332,3.057-3.752,4.353c-1.072,0.717-2.21,1.329-3.401,1.825c-0.698,0.412-1.467,0.689-2.267,0.816
		c-0.714-0.102-1.009-0.714-1.009-1.927c0-1.213,1.009-2.732,2.834-4.353c0.964-0.778,1.979-1.489,3.038-2.131
		c0.102-0.612,0.102-0.816-0.306-0.816c-2.434,1.456-4.74,3.117-6.892,4.965c-1.04,1.022-1.655,2.398-1.723,3.854
		c0.07,0.67,0.394,1.287,0.907,1.723c0.389,0.504,0.985,0.804,1.621,0.816c1.179-0.156,2.327-0.496,3.401-1.009
		c1.65-0.746,3.158-1.774,4.455-3.038c0.306,3.038,1.315,4.455,3.14,4.455c3.401,0,9.227-3.401,17.638-10.542
		c0.217-0.123,0.338-0.365,0.306-0.612L173.554,68.849z"/>
	
		<text transform="matrix(0.8879 0 0 1 64.6038 35.1694)" fill="#FFFFFF" stroke="#FFFFFF" stroke-width="2.8347" stroke-miterlimit="10" font-family="'Micra'" font-size="39.2059">line</text>
	
		<text transform="matrix(1 0 0 1 1.7027 26.5337)" fill="#FFFFFF" stroke="#FFFFFF" stroke-width="2.8347" stroke-miterlimit="10" font-family="'Micra'" font-size="29.8115">on </text>
</g>
</svg>
