<svg id="Layer_1" data-name="Layer 1" xmlns="http://www.w3.org/2000/svg" viewBox="0 0 173.65 105.41"><defs><style>.cls-1,.cls-2,.cls-3{fill:#666;stroke:#666;stroke-miterlimit:10;}.cls-1{stroke-width:0.2px;}.cls-2{font-size:39.21px;}.cls-2,.cls-3{stroke-width:2.83px;font-family:Micra, Micra;}.cls-3{font-size:29.81px;}</style></defs><title>88ш</title><path class="cls-1" d="M71.14,40.37a2.45,2.45,0,0,0-.71-1.72,2.53,2.53,0,0,0-1.93-.82c-5.17.1-12.77,7.1-22.81,21.19-4.76,7-7.93,11.75-9.42,14.19H34.55c-1.52.1-2.27.41-2.27,1,0,.82.51,1.21,1.42,1.21h.61c-.1.82-1.42,2.94-4.06,6.38a115.21,115.21,0,0,1-9.07,10.44A39.75,39.75,0,0,1,13,98.74c-3,1.82-5.17,2.63-6.8,2.63a5.26,5.26,0,0,1-2.83-1.21L1.62,98.53c-1,0-1.52.51-1.52,1.31a2.27,2.27,0,0,0,1.13,1.93,4.44,4.44,0,0,0,2.73.91c3.4,0,7.1-1.52,11.45-4.45a45.09,45.09,0,0,0,7.2-6,109.56,109.56,0,0,0,7.5-8.1c.82-.91,3.14-3.75,6.89-8.72l11.14-.51c.71-.1,1.13-.31,1.13-.61a1,1,0,0,0-1.13-1.13H38.63l2.27-4a70,70,0,0,0,11.75-7.7A91.1,91.1,0,0,0,65.12,49.77c4-4.53,6-7.7,6-9.42Zm-2.27,0c0,2.54-2.34,6.28-6.89,11.14A62.45,62.45,0,0,1,49.61,62.26c-3.65,2.27-6.28,4-8.21,5.17q7-10,10.64-15.2a62.84,62.84,0,0,1,8.21-9.07C63.44,40.47,65.71,39,66.84,39c1.42,0,2,.41,2,1.31Zm7.7,27.77c0-.31-.1-.31-.31-.31s-.31-.1-.31,0a44.42,44.42,0,0,1-6.38,5.37c-2.94,2.13-5.07,3.14-6.38,3.14a2.2,2.2,0,0,1-1.82-.82c2.34-1.93,3.4-4,3.4-6,0-1.82-1-2.73-2.94-2.73S57.3,68,54.43,70.37C51.49,73,50,75.24,50,77.37c0,1.52,1,2.34,3,2.34a9.57,9.57,0,0,0,4.53-1.31,8.17,8.17,0,0,0,2.63-1.93A4.16,4.16,0,0,0,63,77.6c1.52-.1,3.85-1.13,6.89-3.4a29.8,29.8,0,0,0,6.28-5.47.61.61,0,0,0,.31-.61ZM64,69.15c0,1.72-1.21,3.55-3.55,5.37-.51-.41-.71-1.42-.71-2.83a3.83,3.83,0,0,1,.91-2.44A2.87,2.87,0,0,1,63,68.12c.71,0,1,.31,1,1Zm-4.45,6.28a8.43,8.43,0,0,1-5.27,2.27c-1.13,0-1.62-.71-1.62-2.13,0-2.34,2.27-4.45,6.8-6.59a5,5,0,0,0-1,3.55,4.06,4.06,0,0,0,1.13,2.94Zm38.11-7.5c0-.2,0-.2-.2-.2H97c-4.35,3.4-7,5.27-8,5.88-4.26,2.73-7.4,4.06-9.62,4.06a2.87,2.87,0,0,1-1.62-.61,2.44,2.44,0,0,1-.61-1.52c.1-.91.82-2,2.44-3.55s2.54-2.63,2.54-3.65c0-.82-.61-1.21-1.72-1.21-.61.1-1.62.31-3.24.61,1.31-1.21,1.93-2.27,1.93-3.14a1,1,0,0,0-1-.92H78a8.12,8.12,0,0,0-3.24,2.13c-1.31,1.52-1.93,2.54-1.93,3.24a1.64,1.64,0,0,0,.51.91c-4.45,3.4-7.7,5.47-9.93,6.28a1.73,1.73,0,0,0-.51,1.13c0,.2.31.2,1,.2a46.24,46.24,0,0,0,10.54-7.2h.2a17.25,17.25,0,0,0,2.13-.1A13.06,13.06,0,0,1,79.31,70c-.91,1.13-1.93,2.13-2.94,3.24a5.67,5.67,0,0,0-1.62,2.94,3.4,3.4,0,0,0,1.13,2.34,3.46,3.46,0,0,0,2.27,1c3.14,0,6.69-1.42,10.85-4.16,1.62-1.13,4.53-3.4,8.51-6.69a1,1,0,0,0,.2-.71Zm26.45,1.42c-.1-.31-.31-.31-.61-.31q-.76,0-5.47,4c-3.4,2.73-5.67,4-7.2,4-2,0-3-.61-3-1.93a8.41,8.41,0,0,1,2.13-4.53c1.31-1.52,1.93-2.34,1.93-2.27,0-.41-.31-.61-1-.51a10.44,10.44,0,0,0-3,3A10.59,10.59,0,0,0,106,76.12a2.38,2.38,0,0,0,2.73,2.73c1.82,0,4.26-1,7.61-3.14L97,96.9c-2.13,2.44-3.14,4.45-3.14,6.28a20.9,20.9,0,0,0,.2,2.13,2.74,2.74,0,0,0,2.73-2v-.91a8.25,8.25,0,0,1-.2-.91A11.34,11.34,0,0,1,99,97.12c3.75-4.66,7.7-9.42,12.16-14.09,1.62-1.62,4.66-4.76,9.23-9.33,2.44-2.54,3.75-4,3.75-4.35Zm26.65-1.21c0-.31-.1-.31-.31-.31s-.31-.1-.31,0a44.42,44.42,0,0,1-6.38,5.37c-2.94,2.13-5.07,3.14-6.38,3.14a2.2,2.2,0,0,1-1.82-.82c2.34-1.93,3.4-4,3.4-6,0-1.82-.91-2.73-2.94-2.73s-4.53,1.13-7.4,3.55c-2.94,2.63-4.45,4.86-4.45,7,0,1.52,1,2.34,3,2.34a9.57,9.57,0,0,0,4.53-1.31,8.17,8.17,0,0,0,2.63-1.93,4.16,4.16,0,0,0,2.83,1.13c1.52-.1,3.85-1.13,6.89-3.4a29.8,29.8,0,0,0,6.28-5.47.61.61,0,0,0,.31-.61Zm-12.57,1c0,1.72-1.21,3.55-3.55,5.37-.51-.41-.71-1.42-.71-2.83a3.83,3.83,0,0,1,.91-2.44,2.87,2.87,0,0,1,2.34-1.13c.71,0,1,.31,1,1Zm-4.45,6.29a8.43,8.43,0,0,1-5.27,2.27c-1.13,0-1.62-.71-1.62-2.13,0-2.34,2.27-4.45,6.8-6.59a5,5,0,0,0-1,3.55,4.06,4.06,0,0,0,1.13,2.94Zm39.83-7.3c0-.31-.1-.41-.31-.41s-.1,0-.31.1c-4.06,3-6.59,4.86-7.61,5.58-3.65,2.54-6.38,3.75-8,3.75A2.46,2.46,0,0,1,155.81,76a3.4,3.4,0,0,1-.82-2.34c0-.91.82-2,2.13-3.4,1.52-1.42,2.13-2.27,2.13-2.63a.65.65,0,0,0-.71-.61c-.61,0-1.62.82-3,2.63A24,24,0,0,1,151.76,74a19.83,19.83,0,0,1-3.4,1.82,6.46,6.46,0,0,1-2.27.82c-.71-.1-1-.71-1-1.93s1-2.73,2.83-4.35a27.67,27.67,0,0,1,3-2.13c.1-.61.1-.82-.31-.82a49.88,49.88,0,0,0-6.89,5A5.78,5.78,0,0,0,142,76.26a2.62,2.62,0,0,0,.91,1.72,2.1,2.1,0,0,0,1.62.82,11.34,11.34,0,0,0,3.4-1,15.59,15.59,0,0,0,4.45-3c.31,3,1.31,4.45,3.14,4.45,3.4,0,9.23-3.4,17.64-10.54a.61.61,0,0,0,.31-.61Z"/><text class="cls-2" transform="translate(64.6 34.45) scale(0.89 1)">line</text><text class="cls-3" transform="translate(1.7 28.48)">on </text></svg>