<?xml version="1.0" encoding="utf-8"?>
<!-- Generator: Adobe Illustrator 17.0.0, SVG Export Plug-In . SVG Version: 6.00 Build 0)  -->
<!DOCTYPE svg PUBLIC "-//W3C//DTD SVG 1.1//EN" "http://www.w3.org/Graphics/SVG/1.1/DTD/svg11.dtd">
<svg version="1.1" id="Слой_1" xmlns="http://www.w3.org/2000/svg" xmlns:xlink="http://www.w3.org/1999/xlink" x="0px" y="0px"
	 width="492.854px" height="460.372px" viewBox="0 0 492.854 460.372" enable-background="new 0 0 492.854 460.372"
	 xml:space="preserve">
<g>
	
		<linearGradient id="SVGID_1_" gradientUnits="userSpaceOnUse" x1="-1.1778" y1="-116.831" x2="371.4041" y2="417.7458" gradientTransform="matrix(1 0 0 -1 0 461.5894)">
		<stop  offset="0.4" style="stop-color:#F8C792"/>
		<stop  offset="0.57" style="stop-color:#9F6F89"/>
		<stop  offset="0.64" style="stop-color:#735C7E"/>
		<stop  offset="0.73" style="stop-color:#404470"/>
		<stop  offset="0.81" style="stop-color:#1E3665"/>
		<stop  offset="0.85" style="stop-color:#1F3460"/>
	</linearGradient>
	<path fill="url(#SVGID_1_)" d="M492.854,222.739c0-105.147-77.979-192.413-179.137-207.06C287.093,5.286,258.759-0.032,230.178,0
		C103.191,0,0,103.191,0,230.194s103.191,230.178,230.178,230.178c50.05,0.051,98.738-16.298,138.615-46.544
		C444.2,380.157,492.785,305.322,492.854,222.739z M230.178,454.55C106.456,454.55,5.822,353.9,5.822,230.178
		S106.472,5.822,230.178,5.822c19.763-0.028,39.443,2.562,58.526,7.701c-1.694,0-3.394,0-5.098,0
		c-28.051-0.025-55.817,5.623-81.629,16.603C106.148,42.031,31.774,123.953,31.774,222.909c0,99.341,74.945,181.493,171.267,192.906
		c45.165,18.853,95.509,21.283,142.281,6.869C310.553,443.581,270.743,454.598,230.178,454.55z M365.821,408.776
		c-44.797,19.804-95.235,22.779-142.05,8.379h2.264c63.306,0.02,122.646-30.823,159.007-82.645
		c62.824-70.483,56.614-178.55-13.869-241.374c-1.129-1.006-2.271-1.998-3.427-2.974c-36.66-39.266-87.976-61.55-141.695-61.53
		h-3.388c28.946-9.083,59.556-11.582,89.592-7.316c115.287,45.274,172.043,175.433,126.77,290.72
		c-15.057,38.343-40.384,71.797-73.203,96.694L365.821,408.776z M80.227,222.739c0.078-81.318,48.513-154.799,123.213-186.93
		c7.487-0.9,15.022-1.353,22.563-1.355c37.213-0.048,73.598,10.986,104.516,31.697c-85.356-40.363-187.27-3.889-227.633,81.467
		s-3.889,187.27,81.467,227.633c53.823,25.452,117.011,21.069,166.804-11.57c-40.037,35.698-93.414,52.599-146.701,46.451
		C129.207,378.242,80.299,304.468,80.227,222.739z M183.819,406.604C82.378,383.275,19.056,282.128,42.385,180.687
		C58.477,110.718,112.924,55.969,182.802,39.49C81.58,95.143,44.639,222.316,100.292,323.538
		C119.601,358.658,148.593,387.49,183.819,406.604z M388.969,396.701c91.996-87.574,95.581-233.143,8.007-325.139
		c-17.253-18.125-37.349-33.312-59.495-44.963c86.111,23.672,149.55,102.637,149.55,196.156
		c-0.041,71.132-37.222,137.079-98.062,173.931L388.969,396.701z"/>
	<path fill="#010202" stroke="#010202" stroke-width="0.2" stroke-miterlimit="10" d="M236.911,222.622
		c-0.002-0.995-0.398-1.949-1.1-2.654c-0.761-0.828-1.843-1.286-2.968-1.257c-7.961,0.157-19.676,10.929-35.126,32.63
		c-7.333,10.772-12.221,18.104-14.508,21.858h-2.654c-2.339,0.157-3.492,0.629-3.492,1.554c0,1.257,0.786,1.868,2.182,1.868h0.943
		c-0.157,1.257-2.182,4.522-6.25,9.829c-4.329,5.635-8.993,11.004-13.967,16.079c-3.755,3.871-8.005,7.229-12.64,9.986
		c-4.679,2.811-7.961,4.05-10.475,4.05c-1.609-0.173-3.129-0.823-4.365-1.868c-1.868-1.746-2.654-2.497-2.654-2.497
		c-1.554,0-2.339,0.786-2.339,2.025c0.02,1.227,0.683,2.354,1.746,2.968c1.209,0.92,2.689,1.411,4.207,1.397
		c5.238,0,10.929-2.339,17.633-6.861c4.004-2.674,7.72-5.758,11.086-9.201c4.06-3.964,7.917-8.13,11.557-12.483
		c1.257-1.397,4.836-5.779,10.615-13.426l17.162-0.786c1.1-0.157,1.746-0.471,1.746-0.943c0.114-0.851-0.484-1.632-1.334-1.746
		c-0.137-0.018-0.275-0.018-0.411,0h-14.665l3.492-6.093c6.417-3.334,12.483-7.306,18.104-11.854
		c6.956-5.418,13.386-11.48,19.204-18.104c6.093-6.983,9.201-11.854,9.201-14.508L236.911,222.622z M233.42,222.622
		c0,3.911-3.596,9.672-10.615,17.162c-5.595,6.329-11.999,11.894-19.047,16.551c-5.622,3.492-9.672,6.093-12.64,7.961
		c7.181-10.3,12.646-18.104,16.393-23.412c3.749-5.055,7.982-9.733,12.64-13.967c4.906-4.138,8.397-6.337,10.143-6.337
		c2.182,0,3.125,0.629,3.125,2.025V222.622z M245.274,265.395c0-0.471-0.157-0.471-0.471-0.471s-0.471-0.157-0.471,0
		c-3.01,3.061-6.3,5.831-9.829,8.275c-4.522,3.282-7.804,4.836-9.829,4.836c-1.084,0.056-2.13-0.412-2.811-1.257
		c3.596-2.968,5.238-6.093,5.238-9.201c0-2.811-1.554-4.207-4.522-4.207s-6.983,1.746-11.4,5.464
		c-4.522,4.05-6.861,7.49-6.861,10.772c0,2.339,1.554,3.596,4.679,3.596c2.46-0.081,4.861-0.777,6.983-2.025
		c1.536-0.707,2.913-1.717,4.05-2.968c1.181,1.114,2.741,1.738,4.365,1.746c2.339-0.157,5.936-1.746,10.615-5.238
		c3.603-2.344,6.859-5.183,9.672-8.432c0.335-0.189,0.521-0.562,0.471-0.943L245.274,265.395z M225.913,266.949
		c0,2.654-1.868,5.464-5.464,8.275c-0.786-0.629-1.1-2.182-1.1-4.365c0.014-1.376,0.508-2.703,1.397-3.754
		c0.852-1.122,2.188-1.771,3.596-1.746c1.1,0,1.554,0.471,1.554,1.554L225.913,266.949z M219.051,276.621
		c-2.215,2.077-5.087,3.312-8.118,3.492c-1.746,0-2.497-1.1-2.497-3.282c0-3.596,3.492-6.861,10.475-10.143
		c-1.202,1.554-1.759,3.511-1.554,5.464c-0.05,1.681,0.579,3.311,1.746,4.522L219.051,276.621z M277.747,265.063
		c0-0.314,0-0.314-0.314-0.314h-0.629c-6.704,5.238-10.772,8.118-12.326,9.061c-6.564,4.207-11.4,6.25-14.822,6.25
		c-0.909-0.049-1.781-0.379-2.497-0.943c-0.575-0.648-0.908-1.474-0.943-2.339c0.157-1.397,1.257-3.125,3.754-5.464
		c2.497-2.339,3.911-4.05,3.911-5.622c0-1.257-0.943-1.868-2.654-1.868c-0.943,0.157-2.497,0.471-4.993,0.943
		c2.025-1.868,2.968-3.492,2.968-4.836c-0.035-0.819-0.728-1.454-1.546-1.419c-0.067,0.003-0.134,0.01-0.199,0.022
		c-1.905,0.674-3.619,1.801-4.993,3.282c-2.025,2.339-2.968,3.911-2.968,4.993c0.104,0.538,0.379,1.028,0.786,1.397
		c-6.861,5.238-11.854,8.432-15.294,9.672c-0.469,0.465-0.748,1.087-0.786,1.746c0,0.314,0.471,0.314,1.554,0.314
		c5.899-2.927,11.363-6.658,16.236-11.086h0.314c1.096,0.015,2.192-0.037,3.282-0.157c1.285-0.285,2.595-0.443,3.911-0.471
		c-1.397,1.746-2.968,3.282-4.522,4.993c-1.269,1.221-2.14,2.797-2.497,4.522c0.084,1.382,0.711,2.676,1.746,3.596
		c0.932,0.932,2.176,1.486,3.492,1.554c4.836,0,10.3-2.182,16.708-6.407c2.497-1.746,6.983-5.238,13.111-10.3
		c0.248-0.31,0.361-0.706,0.314-1.1L277.747,265.063z M318.477,267.246c-0.157-0.471-0.471-0.471-0.943-0.471
		c-0.78,0-3.591,2.031-8.432,6.093c-5.238,4.207-8.729,6.093-11.086,6.093c-3.125,0-4.679-0.943-4.679-2.968
		c0.359-2.607,1.504-5.043,3.282-6.983c2.025-2.339,2.968-3.596,2.968-3.492c0-0.629-0.471-0.943-1.554-0.786
		c-1.867,1.218-3.46,2.812-4.679,4.679c-1.672,2.451-2.644,5.312-2.811,8.275c-0.325,1.999,1.031,3.882,3.03,4.207
		c0.39,0.063,0.788,0.063,1.178,0c2.811,0,6.564-1.554,11.715-4.836l-29.679,32.63c-3.282,3.754-4.836,6.861-4.836,9.672
		c0.049,1.099,0.154,2.194,0.314,3.282c1.957,0.059,3.699-1.234,4.207-3.125v-1.397c-0.131-0.459-0.236-0.926-0.314-1.397
		c0.691-2.472,1.919-4.761,3.596-6.704c5.779-7.175,11.854-14.508,18.733-21.701c2.497-2.497,7.175-7.333,14.211-14.368
		C316.452,270.039,318.477,267.857,318.477,267.246L318.477,267.246z M359.522,265.377c0-0.471-0.157-0.471-0.471-0.471
		c-0.314,0-0.471-0.157-0.471,0c-3.01,3.061-6.3,5.831-9.829,8.275c-4.522,3.282-7.804,4.836-9.829,4.836
		c-1.084,0.056-2.13-0.412-2.811-1.257c3.596-2.968,5.238-6.093,5.238-9.201c0-2.811-1.397-4.207-4.522-4.207
		c-3.125,0-6.983,1.746-11.4,5.464c-4.522,4.05-6.861,7.49-6.861,10.772c0,2.339,1.554,3.596,4.679,3.596
		c2.46-0.081,4.861-0.777,6.983-2.025c1.536-0.707,2.913-1.717,4.05-2.968c1.181,1.114,2.741,1.738,4.365,1.746
		c2.339-0.157,5.936-1.746,10.615-5.238c3.603-2.344,6.859-5.183,9.672-8.432c0.335-0.189,0.521-0.562,0.471-0.943L359.522,265.377z
		 M340.16,266.931c0,2.654-1.868,5.464-5.464,8.275c-0.786-0.628-1.1-2.182-1.1-4.365c0.014-1.376,0.508-2.703,1.397-3.754
		c0.852-1.122,2.188-1.771,3.596-1.746c1.1,0,1.554,0.471,1.554,1.554L340.16,266.931z M333.299,276.621
		c-2.215,2.077-5.087,3.312-8.118,3.492c-1.746,0-2.497-1.1-2.497-3.282c0-3.596,3.492-6.861,10.475-10.143
		c-1.202,1.554-1.759,3.511-1.554,5.464c-0.05,1.681,0.579,3.311,1.746,4.522L333.299,276.621z M394.648,265.377
		c0-0.471-0.157-0.629-0.471-0.629s-0.157,0-0.471,0.157c-6.25,4.679-10.143,7.49-11.715,8.59
		c-5.622,3.911-9.829,5.779-12.326,5.779c-0.982-0.246-1.824-0.875-2.339-1.746c-0.856-0.999-1.304-2.282-1.257-3.596
		c0-1.397,1.257-3.125,3.282-5.238c2.339-2.182,3.282-3.492,3.282-4.05s-0.471-0.943-1.1-0.943c-0.943,0-2.497,1.257-4.679,4.05
		c-1.651,2.458-3.591,4.709-5.779,6.704c-1.65,1.105-3.404,2.046-5.238,2.811c-1.075,0.634-2.259,1.061-3.492,1.257
		c-1.1-0.157-1.554-1.1-1.554-2.968c0-1.868,1.554-4.207,4.365-6.704c1.484-1.198,3.048-2.294,4.679-3.282
		c0.157-0.943,0.157-1.257-0.471-1.257c-3.749,2.242-7.3,4.801-10.615,7.647c-1.601,1.573-2.549,3.693-2.654,5.936
		c0.107,1.031,0.607,1.982,1.397,2.654c0.598,0.776,1.517,1.238,2.497,1.257c1.817-0.24,3.584-0.764,5.238-1.554
		c2.542-1.149,4.863-2.732,6.861-4.679c0.471,4.679,2.025,6.861,4.836,6.861c5.238,0,14.211-5.238,27.165-16.236
		c0.335-0.189,0.521-0.562,0.471-0.943L394.648,265.377z"/>
	
		<text transform="matrix(0.8879 0 0 1 226.8468 213.5012)" fill="#010202" stroke="#010202" stroke-width="2.8347" stroke-miterlimit="10" font-family="'Micra'" font-size="60.3836">line</text>
	
		<text transform="matrix(1 0 0 1 129.9674 203.2815)" fill="#010202" stroke="#010202" stroke-width="2.8347" stroke-miterlimit="10" font-family="'Micra'" font-size="45.9147">on </text>
	<path fill="#010202" d="M253.42,67.368c83.456,0,151.345,67.891,151.345,151.34S336.875,370.051,253.42,370.051
		c-83.447,0-151.34-67.894-151.34-151.343S169.973,67.368,253.42,67.368 M253.42,64.457c-85.187,0-154.247,69.062-154.247,154.251
		c0,85.192,69.06,154.254,154.247,154.254c85.196,0,154.256-69.062,154.256-154.254C407.675,133.519,338.616,64.457,253.42,64.457
		L253.42,64.457z"/>
</g>
</svg>
