<?xml version="1.0" encoding="utf-8"?>
<!-- Generator: Adobe Illustrator 17.0.0, SVG Export Plug-In . SVG Version: 6.00 Build 0)  -->
<!DOCTYPE svg PUBLIC "-//W3C//DTD SVG 1.1//EN" "http://www.w3.org/Graphics/SVG/1.1/DTD/svg11.dtd">
<svg version="1.1" id="Слой_1" xmlns="http://www.w3.org/2000/svg" xmlns:xlink="http://www.w3.org/1999/xlink" x="0px" y="0px"
	 width="26.093px" height="25.176px" viewBox="0 0 26.093 25.176" enable-background="new 0 0 26.093 25.176" xml:space="preserve">
<path fill="#1F4B75" d="M9.691,17.531c0.294-0.432,0.578-0.846,0.86-1.262c2.034-2.999,4.067-5.999,6.101-8.998
	c1.49-2.197,2.98-4.393,4.47-6.589c0.416-0.612,1.115-0.839,1.755-0.568c0.088,0.037,0.173,0.083,0.252,0.136
	c0.787,0.533,1.578,1.06,2.357,1.605c0.653,0.457,0.794,1.303,0.349,1.965c-0.075,0.111-0.148,0.223-0.223,0.334
	c-2.95,4.351-5.9,8.703-8.85,13.054c-1.564,2.308-3.125,4.618-4.695,6.922c-0.435,0.638-1.01,1.078-1.825,1.045
	c-0.664-0.027-1.233-0.315-1.702-0.78c-1.111-1.1-2.213-2.209-3.318-3.315c-1.579-1.579-3.156-3.161-4.738-4.737
	c-0.633-0.631-0.649-1.493-0.021-2.124c0.635-0.638,1.27-1.275,1.909-1.909c0.621-0.617,1.48-0.611,2.095,0.004
	c1.696,1.697,3.394,3.393,5.091,5.089C9.592,17.44,9.63,17.473,9.691,17.531z"/>
</svg>
