<svg id="Layer_1" data-name="Layer 1" xmlns="http://www.w3.org/2000/svg" viewBox="0 0 40.08 40.08"><defs><style>.cls-1{fill:#fefefe;}.cls-2{fill:#666;stroke:#666;stroke-miterlimit:10;stroke-width:0.71px;fill-rule:evenodd;}</style></defs><title>инс</title><path class="cls-1" d="M868.53,610.26h-22A8.69,8.69,0,0,0,838,619V641a8.52,8.52,0,0,0,8.59,8.59h22a8.71,8.71,0,0,0,8.81-8.59V619a8.88,8.88,0,0,0-8.81-8.7Z" transform="translate(-837.5 -609.79)"/><path class="cls-2" d="M846.56,610.15h22a8.71,8.71,0,0,1,8.7,8.7v22a8.71,8.71,0,0,1-8.7,8.7h-22a8.71,8.71,0,0,1-8.7-8.7v-22a8.71,8.71,0,0,1,8.7-8.7Z" transform="translate(-837.5 -609.79)"/><path class="cls-1" d="M851.8,618.73a5.28,5.28,0,0,0-5.35,5.35v11.49a5.28,5.28,0,0,0,5.35,5.35h11.49a5.28,5.28,0,0,0,5.35-5.35V624.09a5.28,5.28,0,0,0-5.35-5.35Zm11.49,24.54H851.8a7.71,7.71,0,0,1-7.7-7.7V624.09a7.71,7.71,0,0,1,7.7-7.7h11.49a7.71,7.71,0,0,1,7.7,7.7v11.49a7.71,7.71,0,0,1-7.7,7.7Z" transform="translate(-837.5 -609.79)"/><path class="cls-1" d="M857.6,625.31a4.52,4.52,0,1,0,0,9,4.52,4.52,0,0,0,0-9Zm0,11.38a6.86,6.86,0,1,1,6.8-6.8,6.93,6.93,0,0,1-6.8,6.8Z" transform="translate(-837.5 -609.79)"/><path class="cls-1" d="M866.41,622.53a1.67,1.67,0,1,1-3.35,0,1.68,1.68,0,0,1,3.35,0Z" transform="translate(-837.5 -609.79)"/></svg>