<svg id="Layer_1" data-name="Layer 1" xmlns="http://www.w3.org/2000/svg" viewBox="0 0 40.08 40.08"><defs><style>.cls-1{fill:#fefefe;}.cls-2{fill:#666;stroke:#666;stroke-miterlimit:10;stroke-width:0.71px;}.cls-2,.cls-3{fill-rule:evenodd;}.cls-3{fill:#fff;}</style></defs><title>почта</title><path class="cls-1" d="M868.58,610.26h-22a8.88,8.88,0,0,0-8.81,8.7V641a8.71,8.71,0,0,0,8.81,8.59h22a8.52,8.52,0,0,0,8.59-8.59V619a8.69,8.69,0,0,0-8.59-8.7Z" transform="translate(-837.56 -609.79)"/><path class="cls-2" d="M846.61,610.15h22a8.71,8.71,0,0,1,8.7,8.7v22a8.71,8.71,0,0,1-8.7,8.7h-22a8.71,8.71,0,0,1-8.7-8.7v-22a8.71,8.71,0,0,1,8.7-8.7Z" transform="translate(-837.56 -609.79)"/><path class="cls-3" d="M846.17,637.14a3.11,3.11,0,0,0,2.45,1h18a5,5,0,0,0,1.45-.22,4.72,4.72,0,0,0,.78-.56l.22-.22a9.11,9.11,0,0,0-1-.89l-2.79-2.68c-.11-.11-.22-.11-.33-.22l-1-.89a2,2,0,0,1-.45-.56.41.41,0,0,1-.33-.11l-2.34-2.23-1.45.89a2.85,2.85,0,0,1-2.68.45,20.72,20.72,0,0,1-2.12-1.23c0-.11,0-.11-.11-.11l-2.34,2.12-.22.22-2.79,2.57-.33.33c-.11.11-.33.22-.45.45l-1.12.89c-.11.11-.11.22-.22.33l-.56.45c-.11.11-.22.11-.22.22Z" transform="translate(-837.56 -609.79)"/><path class="cls-3" d="M846.5,622.3a41.57,41.57,0,0,1,4,2.68,3.71,3.71,0,0,1,.67.33c1,.67,2.57,1.78,3.46,2.23a9.72,9.72,0,0,0,2.9,1.67c.67,0,1-.33,1.67-.67l4-2.79c.45-.22.89-.56,1.45-.78l4-2.79a6.62,6.62,0,0,0-.89-.45,4.79,4.79,0,0,0-1.34-.22H848.73c-.56,0-2.12.22-2.23.78Z" transform="translate(-837.56 -609.79)"/><path class="cls-3" d="M862.34,628.55a1.64,1.64,0,0,0,.67.56l.67.67c.67.78,2.12,1.9,2.79,2.68l.56.33a3.39,3.39,0,0,0,.89.89l1.45,1.34c.11.22.22.22.45.45V625.09l-.11-1.34c-.22,0-5.24,3.35-5.46,3.57s-.33.22-.56.33-.22.11-.45.22-.78.56-.89.67Z" transform="translate(-837.56 -609.79)"/><path class="cls-3" d="M845.39,635.46c.33-.22,2.12-2,2.57-2.34l3.23-3c.33-.22,1.56-1.45,1.67-1.56l-5.58-3.68c-.22-.11-1.67-1.12-1.78-1.12s-.11.33-.11.78v5h0v.56h0v.45h0v.56h0v.56h0v.56h0v.56h0v.56h0v.56h0v.45h0v.56h0v.56Z" transform="translate(-837.56 -609.79)"/></svg>