<svg id="Layer_1" data-name="Layer 1" xmlns="http://www.w3.org/2000/svg" viewBox="0 0 40.08 40.08"><defs><style>.cls-1,.cls-3{fill:#fefefe;}.cls-2{fill:#666;stroke:#666;stroke-miterlimit:10;stroke-width:0.71px;}.cls-2,.cls-3{fill-rule:evenodd;}</style></defs><title>тел</title><path class="cls-1" d="M868.58,610.26h-22a8.88,8.88,0,0,0-8.81,8.7V641a8.71,8.71,0,0,0,8.81,8.59h22a8.52,8.52,0,0,0,8.59-8.59V619a8.69,8.69,0,0,0-8.59-8.7Z" transform="translate(-837.56 -609.79)"/><path class="cls-2" d="M846.61,610.15h22a8.71,8.71,0,0,1,8.7,8.7v22a8.71,8.71,0,0,1-8.7,8.7h-22a8.71,8.71,0,0,1-8.7-8.7v-22a8.71,8.71,0,0,1,8.7-8.7Z" transform="translate(-837.56 -609.79)"/><path class="cls-3" d="M869.48,628.66a11.67,11.67,0,0,0-23.31-.22V629a12.1,12.1,0,0,0,1.67,5.91l-2.12,6.25,6.47-2.12a11.85,11.85,0,0,0,5.58,1.45A11.59,11.59,0,0,0,869.48,629v-.33Zm-6.36,2.68a15.58,15.58,0,0,0-1.9-1c-.33-.11-.45-.11-.67.22s-.78.89-.89,1-.33.22-.67.11a8,8,0,0,1-2.23-1.45,5,5,0,0,1-1.56-1.9c-.22-.33-.11-.45.11-.56s.22-.33.45-.56v-.11c.11-.11.22-.22.22-.33s.11-.33,0-.45-.67-1.56-.89-2.12-.45-.45-.67-.45a4.83,4.83,0,0,0-.56-.11,1,1,0,0,0-.67.45,2.68,2.68,0,0,0-1,2.34,2.17,2.17,0,0,0,.11.89,5.23,5.23,0,0,0,1,2,11.29,11.29,0,0,0,4.91,4.24c2.9,1.12,2.9.78,3.35.78a3.15,3.15,0,0,0,2-1.45,2,2,0,0,0,.11-1.34c0-.11-.22-.11-.56-.22Zm-5.35,7.36a10.11,10.11,0,0,1-5.35-1.67l-3.68,1.23,1.12-3.57a10.11,10.11,0,0,1-1.78-5.69v-1a9.81,9.81,0,0,1,19.52.22V629a9.73,9.73,0,0,1-9.81,9.7Z" transform="translate(-837.56 -609.79)"/></svg>